<?xml version="1.0" encoding="utf-8"?>
<svg version="1.1" id="Capa_1" xmlns="http://www.w3.org/2000/svg" xmlns:xlink="http://www.w3.org/1999/xlink" x="0px" y="0px"
	 viewBox="0 0 406.5 802.3" style="enable-background:new 0 0 406.5 802.3;" xml:space="preserve"
     >
    
        <style type="text/css">

        /* ACÁ ESTÁ LA ANIMACIÓN */        
       
            @keyframes uggy {
            from {
                transform: translate(0, 0);
            }
            to {
                transform: translate(0, 86px);
            }
        }
            
                    @keyframes brillo {
            from {
                opacity:1;
            }
            to {
                opacity:0; 
            }
        }
        #cable {
            animation: uggy 1s alternate infinite;
        }
            
        #rayo {
            animation: brillo 1s alternate infinite;
        }            
    </style>
    
<path d="M375.3,571.9c0-83.9,0-167.9,0-251.8c0-84.5,0-169,0-253.5c0-9.1-1.7-17.5-8-24.7c-7.4-8.5-16.9-11.2-27.7-11.2
	c-61,0-122,0-183,0c-29.9,0-59.8,0-89.7,0c-10.4,0-19.7,2.5-27.1,10.5c-7.1,7.6-8.7,16.8-8.7,26.6c0,167,0,334,0,500.9
	c0,3.9,0.2,7.8,0.5,11.7c1.9,24.3,21.8,43.6,46,43.7c83.6,0.2,167.3,0.2,250.9,0C356.8,624.3,376.7,599.3,375.3,571.9z M167.9,57
	c24.4,0.1,48.8-0.3,73.1,0.2c3,0.6,5.2,2.2,5,5.6c-0.2,3.5-2.1,5.3-5.6,5.4c-12.5,0.1-25,0.1-37.4,0.1c-11.8,0-23.5,0-35.3,0
	c-5,0-7.3-1.8-7.4-5.4C160.2,59.1,162.8,57,167.9,57z M336.5,529.7c-88.9,0-177.8,0-266.6,0c-6.3,0-6.3,0-6.3-6.5
	c0-70.4,0-140.9,0-211.3c0-70.3,0-140.6,0-210.9c0-6.6,0-6.6,6.7-6.6c88.6,0,177.2,0,265.8,0c6.7,0,6.8,0,6.8,6.6
	c0,140.7,0,281.4,0,422.2C342.8,529.7,342.8,529.7,336.5,529.7z"/>

<polygon points="247.7,141.9 134.1,327.8 192.3,327.8 108.5,479.1 298,285.7 218.2,284.1 " id="rayo" fill="yellow"/>
<g id="cable">
    
    <path d="M203.3,635c9,0,18,0.1,27-0.1c3.6-0.1,4.9,1.2,4.9,4.8c-0.1,14.8,0,29.6-0.1,44.4c-0.1,9-5.5,14.4-14.4,14.5
	c-11.6,0.1-23.2,0.1-34.8,0c-8.5-0.1-14-4.9-14.3-13.2c-0.4-15.5-0.1-31-0.2-46.6c0-3.1,1.7-3.9,4.5-3.9
	C185,635,194.1,635,203.3,635z"/>
    
    <path d="M219.5,741.8c0,10.9-0.1,21.8,0.1,32.6c0.1,3.8-1.1,5.5-5.2,5.4c-7.5-0.2-15.1-0.2-22.6,0c-3.2,0.1-4.8-0.9-4.8-4.4
	c0.1-22.5,0.1-45,0-67.4c0-3.2,1.4-4.3,4.5-4.3c7.8,0.1,15.7,0.1,23.5,0c3.4-0.1,4.6,1.3,4.6,4.6
	C219.4,719.5,219.5,730.6,219.5,741.8z"/>
</g>    
    
</svg>
