<svg xmlns="http://www.w3.org/2000/svg" viewBox="0 0 100 100">
    <style type="text/css">
        * {
            transition: all ease 1s;
        }
        #encima {
            fill: #D1D3D4;
        }
        #encima:hover {
            opacity: 0;
        }
    </style>
    <defs>
        <clipPath id="clipping">
            <path d="M57,63.22h5.54V87.33c0,2.83-1.48,3.94-3.94,3.94H17.28A3.73,3.73,0,0,1,14,87.33V14.51c0-4,2-5.78,5.54-5.78h10l1.23,3.69H45.45l1.23-3.69h10c4.31,0,5.91,1.73,5.91,5.78v4.68H20.85a1.71,1.71,0,0,0-1.48,1.6V79.46a1.48,1.48,0,0,0,1.48,1.35H55.41A1.6,1.6,0,0,0,57,79.46ZM86,29.15V53.26a3.29,3.29,0,0,1-3.32,3.2H43.6L35.85,68.39V56.46H30.07a3.29,3.29,0,0,1-3.32-3.2V29.15A3.29,3.29,0,0,1,30.07,26H82.72A3.29,3.29,0,0,1,86,29.15Z"></path>
        </clipPath>
    </defs>
    <image height="100%" width="100%" preserveAspectRatio="xMinYMin slice" href="https://w0.peakpx.com/wallpaper/818/148/HD-wallpaper-whatsapp-background-cool-dark-green-new-theme-whatsapp.jpg" clip-path="url(#clipping)" />
    <rect x="0" y="0" width="100" height="100" clip-path="url(#clipping)" id="encima"></rect>
    <path d="M57,63.22h5.54V87.33c0,2.83-1.48,3.94-3.94,3.94H17.28A3.73,3.73,0,0,1,14,87.33V14.51c0-4,2-5.78,5.54-5.78h10l1.23,3.69H45.45l1.23-3.69h10c4.31,0,5.91,1.73,5.91,5.78v4.68H20.85a1.71,1.71,0,0,0-1.48,1.6V79.46a1.48,1.48,0,0,0,1.48,1.35H55.41A1.6,1.6,0,0,0,57,79.46ZM86,29.15V53.26a3.29,3.29,0,0,1-3.32,3.2H43.6L35.85,68.39V56.46H30.07a3.29,3.29,0,0,1-3.32-3.2V29.15A3.29,3.29,0,0,1,30.07,26H82.72A3.29,3.29,0,0,1,86,29.15Z" fill="none" stroke="green" stroke-linecap="round" stroke-width="0.25"></path>
</svg>